<svg width="64" height="64" viewBox="0 0 64 64" fill="none" xmlns="http://www.w3.org/2000/svg">
<rect width="64" height="64" rx="8" fill="#FEFBEC"/>
<path d="M23.4012 17.1976H40.2988C40.4544 17.1976 40.5813 17.0706 40.5813 16.9151V16.0675C40.5813 15.912 40.4544 15.785 40.2988 15.785H23.4012C23.2438 15.785 23.1187 15.912 23.1187 16.0675V16.9151C23.1187 17.0706 23.2438 17.1976 23.4012 17.1976Z" fill="#4E2754"/>
<mask id="mask0_1577_57" style="mask-type:luminance" maskUnits="userSpaceOnUse" x="11" y="15" width="42" height="37">
<path d="M11.2861 15.7815H52.6594V51.144H11.2861V15.7815Z" fill="white"/>
</mask>
<g mask="url(#mask0_1577_57)">
<path d="M48.2607 49.8921H15.6867C14.0362 49.8921 12.6987 48.5546 12.6987 46.9061V27.0246H51.2468V46.9061C51.2468 48.5546 49.9093 49.8921 48.2607 49.8921ZM48.2607 15.7849H45.1011C44.9455 15.7849 44.8185 15.91 44.8185 16.0674V16.9149C44.8185 17.0705 44.9455 17.1974 45.1011 17.1974H48.2607C49.9075 17.1974 51.2468 18.5367 51.2468 20.1871V25.6121H12.6987V20.1871C12.6987 18.5367 14.038 17.1974 15.6867 17.1974H18.5959C18.7533 17.1974 18.8784 17.0705 18.8784 16.9149V16.0674C18.8784 15.91 18.7533 15.7849 18.5959 15.7849H15.6867C13.262 15.7849 11.2861 17.7589 11.2861 20.1871V46.9061C11.2861 49.3253 13.2656 51.3047 15.6867 51.3047H48.2607C50.68 51.3047 52.6612 49.3253 52.6612 46.9061V20.1871C52.6612 17.7589 50.6853 15.7849 48.2607 15.7849Z" fill="#4E2754"/>
</g>
<mask id="mask1_1577_57" style="mask-type:luminance" maskUnits="userSpaceOnUse" x="19" y="12" width="4" height="9">
<path d="M19.6211 12.6936H22.3676V20.8275H19.6211V12.6936Z" fill="white"/>
</mask>
<g mask="url(#mask1_1577_57)">
<path d="M20.9997 20.6361C21.6988 20.6361 22.271 20.0675 22.271 19.3648V14.3153C22.271 13.6126 21.6988 13.044 20.9997 13.044C20.2952 13.044 19.7266 13.6126 19.7266 14.3153V19.3648C19.7266 20.0675 20.2952 20.6361 20.9997 20.6361Z" fill="#4E2754"/>
</g>
<mask id="mask2_1577_57" style="mask-type:luminance" maskUnits="userSpaceOnUse" x="41" y="12" width="4" height="9">
<path d="M41.1357 12.6936H44.34V20.3697H41.1357V12.6936Z" fill="white"/>
</mask>
<g mask="url(#mask2_1577_57)">
<path d="M42.7002 20.2891C43.4011 20.2891 43.9715 19.7169 43.9715 19.016V13.9648C43.9715 13.2638 43.4011 12.6935 42.7002 12.6935C41.9957 12.6935 41.4288 13.2638 41.4288 13.9648V19.016C41.4288 19.7169 41.9957 20.2891 42.7002 20.2891Z" fill="#4E2754"/>
</g>
<path d="M13.8132 44.2106H13.5771C13.5771 43.4668 13.9366 41.4981 14.6572 38.3028C15.376 35.104 15.7372 33.3374 15.7372 33.003C15.7372 32.4648 15.5387 31.9499 15.1435 31.4582L14.9504 31.2078L15.0076 30.8288C15.7658 30.5713 17.1498 30.4425 19.1632 30.4425C19.367 30.9056 19.4779 31.451 19.4922 32.0804C20.9942 30.9754 22.2781 30.4211 23.3474 30.4211C24.5669 30.4211 25.2928 30.9486 25.5217 32.0017C26.9701 30.9486 28.2361 30.4211 29.3197 30.4211C30.0492 30.4211 30.6446 30.6249 31.1078 31.029C31.5691 31.4349 31.8016 32.0196 31.8016 32.7813C31.8016 33.5448 31.5226 34.9967 30.9647 37.137C30.4068 39.2738 30.1279 40.79 30.1279 41.6859C30.1279 42.0202 30.1958 42.1865 30.3353 42.1865C30.6071 42.1865 30.9361 42.1114 31.3223 41.9576L31.7229 43.0591C30.5302 43.903 29.3501 44.325 28.1824 44.325C27.6281 44.325 27.1847 44.157 26.8521 43.8244C26.5177 43.4918 26.3514 43.0001 26.3514 42.351C26.3514 41.7037 26.616 40.2912 27.1453 38.1169C27.6782 35.939 27.9464 34.6123 27.9464 34.1402C27.9464 33.6646 27.8892 33.3463 27.7747 33.189C27.6603 33.0281 27.435 32.9458 27.1024 32.9458C26.768 32.9458 26.2405 33.189 25.5217 33.6753C25.4305 34.2672 25.232 35.2238 24.9281 36.5434C24.1163 39.9246 23.7122 42.3206 23.7122 43.7314C23.0827 44.0658 21.9974 44.232 20.4578 44.232H19.9357C19.9357 43.0501 20.2361 41.1995 20.8369 38.6819C21.4413 36.1643 21.7452 34.6552 21.7452 34.1545C21.7452 33.6539 21.6898 33.3285 21.5807 33.1747C21.4699 33.0227 21.2463 32.9458 20.9084 32.9458C20.5687 32.9458 20.0322 33.1961 19.2991 33.6968C19.1847 34.3369 18.9486 35.4026 18.591 36.8939C17.756 40.3752 17.3393 42.6478 17.3393 43.7099C16.7707 44.0443 15.5959 44.2106 13.8132 44.2106Z" fill="#4E2754"/>
<path d="M36.5456 44.3248C35.8107 44.3248 35.2296 44.0655 34.8004 43.5452C34.3713 43.0266 34.1567 42.3686 34.1567 41.5711C34.1567 40.7755 34.2068 39.7473 34.3069 38.4885C34.4106 37.2297 34.4643 36.0693 34.4643 35.0054C34.4643 33.9379 34.3605 33.153 34.1567 32.6523C34.0655 32.4628 33.7955 32.098 33.3485 31.558L33.0981 31.2648L33.1697 30.8857C34.2998 30.5907 35.8411 30.4423 37.7973 30.4423C38.1156 30.8142 38.2765 31.5473 38.2765 32.638C38.2765 33.7305 38.1978 35.0376 38.0405 36.5574C37.8867 38.0791 37.8116 39.1877 37.8116 39.8832C37.8116 40.5752 37.8617 41.0311 37.9618 41.2493C38.0655 41.4639 38.2336 41.5711 38.4625 41.5711C38.6949 41.5711 38.9989 41.4478 39.3708 41.1992C39.7463 40.9471 40.0432 40.6807 40.2577 40.3982C40.2577 40.3231 40.3507 39.4934 40.5367 37.9092C40.7226 36.3214 40.8156 35.009 40.8156 33.9683C40.8156 32.9241 40.694 32.005 40.4508 31.2076C41.5702 30.698 42.9131 30.4351 44.4777 30.4208C44.6958 30.8839 44.8067 31.5902 44.8067 32.5379C44.8067 33.4873 44.6422 34.9589 44.3132 36.9508C43.9842 38.9391 43.8196 40.1157 43.8196 40.4769C43.8196 41.1974 44.002 41.5568 44.3704 41.5568C44.7369 41.5568 45.2072 41.235 45.7794 40.5913C46.3516 39.9476 46.8702 39.1233 47.3386 38.1166C47.8053 37.1064 48.0646 36.1605 48.1183 35.2772L45.9439 33.811C46.0584 32.6577 46.4678 31.6832 47.1741 30.8857C47.3261 30.7194 47.5049 30.571 47.7106 30.4423C48.635 30.4423 49.336 30.6854 49.8134 31.1718C50.289 31.6581 50.5286 32.1981 50.5286 32.7882C50.5286 33.8432 50.289 35.0412 49.8134 36.3858C49.336 37.7268 48.728 38.9802 47.9895 40.1478C47.2546 41.3172 46.382 42.306 45.3717 43.116C44.365 43.9224 43.3798 44.3248 42.4178 44.3248C41.9028 44.3248 41.445 44.1567 41.0445 43.8241C40.6475 43.4915 40.3811 42.9855 40.2434 42.3078C38.956 43.6524 37.7222 44.3248 36.5456 44.3248Z" fill="#4E2754"/>
</svg>
