<svg width="64" height="64" viewBox="0 0 64 64" fill="none" xmlns="http://www.w3.org/2000/svg">
<rect width="64" height="64" rx="8" fill="#FEFBEC"/>
<path d="M23.4012 17.1975H40.2988C40.4544 17.1975 40.5813 17.0705 40.5813 16.915V16.0674C40.5813 15.9119 40.4544 15.7849 40.2988 15.7849H23.4012C23.2438 15.7849 23.1187 15.9119 23.1187 16.0674V16.915C23.1187 17.0705 23.2438 17.1975 23.4012 17.1975Z" fill="#292929"/>
<mask id="mask0_1636_1170" style="mask-type:luminance" maskUnits="userSpaceOnUse" x="11" y="15" width="42" height="37">
<path d="M11.2861 15.7815H52.6594V51.1439H11.2861V15.7815Z" fill="white"/>
</mask>
<g mask="url(#mask0_1636_1170)">
<path d="M48.2607 49.8921H15.6867C14.0362 49.8921 12.6987 48.5547 12.6987 46.9061V27.0247H51.2468V46.9061C51.2468 48.5547 49.9093 49.8921 48.2607 49.8921ZM48.2607 15.7849H45.1011C44.9455 15.7849 44.8185 15.9101 44.8185 16.0674V16.915C44.8185 17.0705 44.9455 17.1975 45.1011 17.1975H48.2607C49.9075 17.1975 51.2468 18.5367 51.2468 20.1871V25.6121H12.6987V20.1871C12.6987 18.5367 14.038 17.1975 15.6867 17.1975H18.5959C18.7533 17.1975 18.8784 17.0705 18.8784 16.915V16.0674C18.8784 15.9101 18.7533 15.7849 18.5959 15.7849H15.6867C13.262 15.7849 11.2861 17.7589 11.2861 20.1871V46.9061C11.2861 49.3253 13.2656 51.3047 15.6867 51.3047H48.2607C50.68 51.3047 52.6612 49.3253 52.6612 46.9061V20.1871C52.6612 17.7589 50.6853 15.7849 48.2607 15.7849Z" fill="#292929"/>
</g>
<mask id="mask1_1636_1170" style="mask-type:luminance" maskUnits="userSpaceOnUse" x="19" y="12" width="4" height="9">
<path d="M19.6211 12.6934H22.3676V20.8272H19.6211V12.6934Z" fill="white"/>
</mask>
<g mask="url(#mask1_1636_1170)">
<path d="M20.9997 20.636C21.6988 20.636 22.271 20.0674 22.271 19.3647V14.3153C22.271 13.6125 21.6988 13.0439 20.9997 13.0439C20.2952 13.0439 19.7266 13.6125 19.7266 14.3153V19.3647C19.7266 20.0674 20.2952 20.636 20.9997 20.636Z" fill="#292929"/>
</g>
<mask id="mask2_1636_1170" style="mask-type:luminance" maskUnits="userSpaceOnUse" x="41" y="12" width="4" height="9">
<path d="M41.1357 12.6934H44.34V20.3695H41.1357V12.6934Z" fill="white"/>
</mask>
<g mask="url(#mask2_1636_1170)">
<path d="M42.7002 20.289C43.4011 20.289 43.9715 19.7169 43.9715 19.0159V13.9647C43.9715 13.2638 43.4011 12.6934 42.7002 12.6934C41.9957 12.6934 41.4288 13.2638 41.4288 13.9647V19.0159C41.4288 19.7169 41.9957 20.289 42.7002 20.289Z" fill="#292929"/>
</g>
<path d="M13.8132 44.2107H13.5771C13.5771 43.4668 13.9366 41.4982 14.6572 38.3029C15.376 35.1041 15.7372 33.3375 15.7372 33.0031C15.7372 32.4649 15.5387 31.9499 15.1435 31.4582L14.9504 31.2079L15.0076 30.8288C15.7658 30.5713 17.1498 30.4426 19.1632 30.4426C19.367 30.9057 19.4779 31.4511 19.4922 32.0805C20.9942 30.9754 22.2781 30.4211 23.3474 30.4211C24.5669 30.4211 25.2928 30.9486 25.5217 32.0018C26.9701 30.9486 28.2361 30.4211 29.3197 30.4211C30.0492 30.4211 30.6446 30.625 31.1078 31.0291C31.5691 31.435 31.8016 32.0197 31.8016 32.7814C31.8016 33.5449 31.5226 34.9968 30.9647 37.1371C30.4068 39.2738 30.1279 40.7901 30.1279 41.6859C30.1279 42.0203 30.1958 42.1866 30.3353 42.1866C30.6071 42.1866 30.9361 42.1115 31.3223 41.9577L31.7229 43.0591C30.5302 43.9031 29.3501 44.3251 28.1824 44.3251C27.6281 44.3251 27.1847 44.157 26.8521 43.8244C26.5177 43.4919 26.3514 43.0001 26.3514 42.3511C26.3514 41.7038 26.616 40.2912 27.1453 38.1169C27.6782 35.9391 27.9464 34.6124 27.9464 34.1403C27.9464 33.6647 27.8892 33.3464 27.7747 33.1891C27.6603 33.0281 27.435 32.9459 27.1024 32.9459C26.768 32.9459 26.2405 33.1891 25.5217 33.6754C25.4305 34.2673 25.232 35.2239 24.9281 36.5435C24.1163 39.9247 23.7122 42.3207 23.7122 43.7315C23.0827 44.0658 21.9974 44.2321 20.4578 44.2321H19.9357C19.9357 43.0502 20.2361 41.1996 20.8369 38.682C21.4413 36.1644 21.7452 34.6553 21.7452 34.1546C21.7452 33.654 21.6898 33.3285 21.5807 33.1748C21.4699 33.0228 21.2463 32.9459 20.9084 32.9459C20.5687 32.9459 20.0322 33.1962 19.2991 33.6969C19.1847 34.337 18.9486 35.4027 18.591 36.8939C17.756 40.3753 17.3393 42.6479 17.3393 43.71C16.7707 44.0444 15.5959 44.2107 13.8132 44.2107Z" fill="#292929"/>
<path d="M36.5456 44.3251C35.8107 44.3251 35.2296 44.0658 34.8004 43.5455C34.3713 43.027 34.1567 42.369 34.1567 41.5715C34.1567 40.7758 34.2068 39.7477 34.3069 38.4889C34.4106 37.2301 34.4643 36.0696 34.4643 35.0057C34.4643 33.9383 34.3605 33.1533 34.1567 32.6526C34.0655 32.4631 33.7955 32.0983 33.3485 31.5583L33.0981 31.2651L33.1697 30.886C34.2998 30.591 35.8411 30.4426 37.7973 30.4426C38.1156 30.8145 38.2765 31.5476 38.2765 32.6383C38.2765 33.7308 38.1978 35.0379 38.0405 36.5578C37.8867 38.0794 37.8116 39.188 37.8116 39.8836C37.8116 40.5755 37.8617 41.0315 37.9618 41.2496C38.0655 41.4642 38.2336 41.5715 38.4625 41.5715C38.6949 41.5715 38.9989 41.4481 39.3708 41.1996C39.7463 40.9474 40.0432 40.681 40.2577 40.3985C40.2577 40.3234 40.3507 39.4938 40.5367 37.9095C40.7226 36.3217 40.8156 35.0093 40.8156 33.9687C40.8156 32.9244 40.694 32.0054 40.4508 31.2079C41.5702 30.6983 42.9131 30.4354 44.4777 30.4211C44.6958 30.8843 44.8067 31.5905 44.8067 32.5382C44.8067 33.4877 44.6422 34.9592 44.3132 36.9511C43.9842 38.9395 43.8196 40.116 43.8196 40.4772C43.8196 41.1978 44.002 41.5572 44.3704 41.5572C44.7369 41.5572 45.2072 41.2353 45.7794 40.5916C46.3516 39.9479 46.8702 39.1236 47.3386 38.1169C47.8053 37.1067 48.0646 36.1608 48.1183 35.2775L45.9439 33.8113C46.0584 32.658 46.4678 31.6835 47.1741 30.886C47.3261 30.7197 47.5049 30.5713 47.7106 30.4426C48.635 30.4426 49.336 30.6858 49.8134 31.1721C50.289 31.6585 50.5286 32.1985 50.5286 32.7885C50.5286 33.8435 50.289 35.0415 49.8134 36.3861C49.336 37.7272 48.728 38.9806 47.9895 40.1482C47.2546 41.3176 46.382 42.3064 45.3717 43.1164C44.365 43.9228 43.3798 44.3251 42.4178 44.3251C41.9028 44.3251 41.445 44.157 41.0445 43.8244C40.6475 43.4919 40.3811 42.9858 40.2434 42.3082C38.956 43.6528 37.7222 44.3251 36.5456 44.3251Z" fill="#292929"/>
</svg>
