<svg width="96" height="96" viewBox="0 0 96 96" fill="none" xmlns="http://www.w3.org/2000/svg">
<path d="M66 37.6L30 16.84M13.08 27.84L48 48.04L82.92 27.84M48 88.32V48M84 64V32C83.9986 30.5971 83.6282 29.2192 82.9262 28.0047C82.2241 26.7901 81.2149 25.7815 80 25.08L52 9.08001C50.7838 8.37786 49.4043 8.00821 48 8.00821C46.5957 8.00821 45.2162 8.37786 44 9.08001L16 25.08C14.7851 25.7815 13.7759 26.7901 13.0738 28.0047C12.3718 29.2192 12.0014 30.5971 12 32V64C12.0014 65.4029 12.3718 66.7808 13.0738 67.9954C13.7759 69.2099 14.7851 70.2186 16 70.92L44 86.92C45.2162 87.6222 46.5957 87.9918 48 87.9918C49.4043 87.9918 50.7838 87.6222 52 86.92L80 70.92C81.2149 70.2186 82.2241 69.2099 82.9262 67.9954C83.6282 66.7808 83.9986 65.4029 84 64Z" stroke="#FEFBEC" stroke-width="4" stroke-linecap="round" stroke-linejoin="round"/>
</svg>
