<svg width="96" height="96" viewBox="0 0 96 96" fill="none" xmlns="http://www.w3.org/2000/svg">
<path d="M48 60C54.6274 60 60 54.6274 60 48C60 41.3726 54.6274 36 48 36C41.3726 36 36 41.3726 36 48C36 54.6274 41.3726 60 48 60Z" stroke="#FEFBEC" stroke-width="4" stroke-linecap="round" stroke-linejoin="round"/>
<path d="M77.6 60C77.0675 61.2065 76.9087 62.5448 77.144 63.8424C77.3793 65.1399 77.9979 66.3373 78.92 67.28L79.16 67.52C79.9038 68.263 80.4939 69.1453 80.8965 70.1165C81.2991 71.0877 81.5063 72.1287 81.5063 73.18C81.5063 74.2313 81.2991 75.2723 80.8965 76.2435C80.4939 77.2147 79.9038 78.097 79.16 78.84C78.417 79.5838 77.5347 80.1739 76.5635 80.5765C75.5923 80.9791 74.5513 81.1863 73.5 81.1863C72.4487 81.1863 71.4077 80.9791 70.4365 80.5765C69.4653 80.1739 68.583 79.5838 67.84 78.84L67.6 78.6C66.6573 77.6779 65.4599 77.0593 64.1624 76.824C62.8648 76.5887 61.5265 76.7475 60.32 77.28C59.1369 77.7871 58.1279 78.629 57.4172 79.7021C56.7065 80.7753 56.3251 82.0329 56.32 83.32V84C56.32 86.1217 55.4771 88.1566 53.9769 89.6569C52.4766 91.1571 50.4417 92 48.32 92C46.1983 92 44.1634 91.1571 42.6631 89.6569C41.1629 88.1566 40.32 86.1217 40.32 84V83.64C40.289 82.316 39.8605 81.032 39.09 79.9548C38.3196 78.8776 37.2429 78.0571 36 77.6C34.7935 77.0675 33.4552 76.9087 32.1576 77.144C30.8601 77.3793 29.6627 77.9979 28.72 78.92L28.48 79.16C27.737 79.9038 26.8547 80.4939 25.8835 80.8965C24.9123 81.2991 23.8713 81.5063 22.82 81.5063C21.7687 81.5063 20.7277 81.2991 19.7565 80.8965C18.7853 80.4939 17.903 79.9038 17.16 79.16C16.4162 78.417 15.8261 77.5347 15.4235 76.5635C15.0209 75.5923 14.8137 74.5513 14.8137 73.5C14.8137 72.4487 15.0209 71.4077 15.4235 70.4365C15.8261 69.4653 16.4162 68.583 17.16 67.84L17.4 67.6C18.3221 66.6573 18.9407 65.4599 19.176 64.1624C19.4113 62.8648 19.2525 61.5265 18.72 60.32C18.2129 59.1369 17.371 58.1279 16.2979 57.4172C15.2247 56.7065 13.9671 56.3251 12.68 56.32H12C9.87827 56.32 7.84344 55.4771 6.34315 53.9769C4.84285 52.4766 4 50.4417 4 48.32C4 46.1983 4.84285 44.1634 6.34315 42.6631C7.84344 41.1629 9.87827 40.32 12 40.32H12.36C13.684 40.289 14.968 39.8605 16.0452 39.09C17.1224 38.3196 17.9429 37.2429 18.4 36C18.9325 34.7935 19.0913 33.4552 18.856 32.1576C18.6207 30.8601 18.0021 29.6627 17.08 28.72L16.84 28.48C16.0962 27.737 15.5061 26.8547 15.1035 25.8835C14.7009 24.9123 14.4937 23.8713 14.4937 22.82C14.4937 21.7687 14.7009 20.7277 15.1035 19.7565C15.5061 18.7853 16.0962 17.903 16.84 17.16C17.583 16.4162 18.4653 15.8261 19.4365 15.4235C20.4077 15.0209 21.4487 14.8137 22.5 14.8137C23.5513 14.8137 24.5923 15.0209 25.5635 15.4235C26.5347 15.8261 27.417 16.4162 28.16 17.16L28.4 17.4C29.3427 18.3221 30.5401 18.9407 31.8376 19.176C33.1352 19.4113 34.4735 19.2525 35.68 18.72H36C37.1831 18.2129 38.1921 17.371 38.9028 16.2979C39.6135 15.2247 39.9949 13.9671 40 12.68V12C40 9.87827 40.8429 7.84344 42.3431 6.34315C43.8434 4.84285 45.8783 4 48 4C50.1217 4 52.1566 4.84285 53.6569 6.34315C55.1571 7.84344 56 9.87827 56 12V12.36C56.0051 13.6471 56.3865 14.9047 57.0972 15.9779C57.8079 17.051 58.8169 17.8929 60 18.4C61.2065 18.9325 62.5448 19.0913 63.8424 18.856C65.1399 18.6207 66.3373 18.0021 67.28 17.08L67.52 16.84C68.263 16.0962 69.1453 15.5061 70.1165 15.1035C71.0877 14.7009 72.1287 14.4937 73.18 14.4937C74.2313 14.4937 75.2723 14.7009 76.2435 15.1035C77.2147 15.5061 78.097 16.0962 78.84 16.84C79.5838 17.583 80.1739 18.4653 80.5765 19.4365C80.9791 20.4077 81.1863 21.4487 81.1863 22.5C81.1863 23.5513 80.9791 24.5923 80.5765 25.5635C80.1739 26.5347 79.5838 27.417 78.84 28.16L78.6 28.4C77.6779 29.3427 77.0593 30.5401 76.824 31.8376C76.5887 33.1352 76.7475 34.4735 77.28 35.68V36C77.7871 37.1831 78.629 38.1921 79.7021 38.9028C80.7753 39.6135 82.0329 39.9949 83.32 40H84C86.1217 40 88.1566 40.8429 89.6569 42.3431C91.1571 43.8434 92 45.8783 92 48C92 50.1217 91.1571 52.1566 89.6569 53.6569C88.1566 55.1571 86.1217 56 84 56H83.64C82.3529 56.0051 81.0953 56.3865 80.0221 57.0972C78.949 57.8079 78.107 58.8169 77.6 60Z" stroke="#FEFBEC" stroke-width="4" stroke-linecap="round" stroke-linejoin="round"/>
</svg>
