<svg width="96" height="96" viewBox="0 0 96 96" fill="none" xmlns="http://www.w3.org/2000/svg">
<path d="M64 64L48 48M48 48L32 64M48 48V84M81.56 73.56C85.4613 71.4331 88.5433 68.0675 90.3195 63.9945C92.0956 59.9215 92.4648 55.3729 91.3688 51.0668C90.2728 46.7606 87.7739 42.942 84.2666 40.2138C80.7594 37.4855 76.4434 36.0029 72 36H66.96C65.7492 31.317 63.4926 26.9693 60.3598 23.284C57.2269 19.5986 53.2993 16.6714 48.8724 14.7224C44.4454 12.7735 39.6342 11.8534 34.8004 12.0315C29.9667 12.2096 25.2362 13.4812 20.9647 15.7507C16.6931 18.0201 12.9916 21.2284 10.1385 25.1343C7.28529 29.0402 5.35472 33.5421 4.49188 38.3016C3.62904 43.061 3.85638 47.9541 5.15682 52.613C6.45725 57.272 8.79693 61.5755 12 65.2" stroke="#FEFBEC" stroke-width="4" stroke-linecap="round" stroke-linejoin="round"/>
</svg>
