<svg width="96" height="96" viewBox="0 0 96 96" fill="none" xmlns="http://www.w3.org/2000/svg">
<path d="M68 84V76C68 71.7565 66.3143 67.6869 63.3137 64.6863C60.3131 61.6857 56.2435 60 52 60H20C15.7565 60 11.6869 61.6857 8.68629 64.6863C5.68571 67.6869 4 71.7565 4 76V84M92 84V76C91.9974 72.4549 90.8174 69.0111 88.6455 66.2093C86.4735 63.4074 83.4325 61.4063 80 60.52M64 12.52C67.4417 13.4012 70.4921 15.4028 72.6706 18.2092C74.849 21.0157 76.0314 24.4673 76.0314 28.02C76.0314 31.5727 74.849 35.0243 72.6706 37.8308C70.4921 40.6372 67.4417 42.6388 64 43.52M52 28C52 36.8366 44.8366 44 36 44C27.1634 44 20 36.8366 20 28C20 19.1634 27.1634 12 36 12C44.8366 12 52 19.1634 52 28Z" stroke="#FEFBEC" stroke-width="4" stroke-linecap="round" stroke-linejoin="round"/>
</svg>
